# xmcd
#
# Track frame offsets: 
#        150
#        27168
#        65958
#        95222
#        107994
#        117686
#        130125
#        151632
#
# Disc length: 2360 seconds
#
# Revision: 0
# Processed by: cddbd v1.5.2PL0 Copyright (c) Steve Scherf et al.
# Submitted via: ExactAudioCopy v0.95a4
#
DISCID=72093608
DTITLE=Alvin Lee and Co. - Live At The Academy Of Music New York 1975 (D
DTITLE=isc 1)
DYEAR=2017
DGENRE=Blues
TTITLE0=Got To Keep Moving
TTITLE1=Let's Get Back
TTITLE2=Somebody Callin' Me
TTITLE3=All Life's Trials
TTITLE4=Baby Please Don't Go
TTITLE5=Time And Space
TTITLE6=There's A Feeling
TTITLE7=Every Blues You've Ever Heard
EXTD=
EXTT0=
EXTT1=
EXTT2=
EXTT3=
EXTT4=
EXTT5=
EXTT6=
EXTT7=
PLAYORDER=
